#!OML:ASF F:\VICON\USERDATA\INSTALL\rory3\rory3.ASF
:FULLY-SPECIFIED
:DEGREES
4456
root 4.50988 17.7512 -6.55847 1438.37 -29.2307 -715.175
lowerback 13.1084 7.08925 1.58262
upperback 1.09032 9.37326 -3.86717
thorax -5.20808 4.54685 -6.534
lowerneck -16.8654 14.0878 -3.79834
upperneck 47.2377 23.285 3.56983
head 20.5517 8.6578 7.14497
rclavicle 8.23217e-014 -1.5704e-014
rhumerus -44.2698 -16.6671 -66.8663
rradius 35.9111
rwrist 3.12674
rhand -16.1566 10.2819
rfingers 7.12502
rthumb 10.0491 -19.4582
lclavicle 8.23217e-014 -1.5704e-014
lhumerus -33.3664 9.62417 80.1825
lradius 35.294
lwrist -5.92879
lhand -21.4515 25.1928
lfingers 7.12502
lthumb 4.93838 55.1152
rfemur -25.1951 0.64836 10.4469
rtibia 32.8042
rfoot -7.66397 -5.44941
rtoes 3.88877
lfemur 4.26125 -9.51823 -25.118
ltibia 13.3982
lfoot -13.5622 -10.0367
ltoes -4.82461
4457
root 4.61392 17.7588 -6.64492 1438.66 -29.3795 -715.455
lowerback 13.223 6.99571 1.77457
upperback 1.04697 9.28185 -3.77269
thorax -5.31307 4.49306 -6.5471
lowerneck -16.8636 14.0962 -3.86934
upperneck 47.1847 23.3647 3.44352
head 20.5305 8.66039 7.10322
rclavicle 1.11841e-013 -2.18663e-014
rhumerus -44.1844 -16.3536 -67.0339
rradius 36.2243
rwrist 3.01377
rhand -15.9987 10.6128
rfingers 7.12502
rthumb 10.2014 -19.1199
lclavicle 1.11841e-013 -2.18663e-014
lhumerus -33.3747 9.56908 80.2039
lradius 35.3993
lwrist -6.23919
lhand -21.0017 24.7901
lfingers 7.12502
lthumb 5.37273 54.702
rfemur -25.453 0.736236 10.578
rtibia 32.3353
rfoot -8.2798 -5.22193
rtoes 1.74041
lfemur 3.63318 -8.69116 -24.7841
ltibia 13.3438
lfoot -13.5513 -10.7204
ltoes -2.82725
4458
root 4.71896 17.7735 -6.76144 1439.05 -29.1064 -715.597
lowerback 13.483 6.77472 1.74636
upperback 0.928091 8.9854 -3.70468
thorax -5.63245 4.33187 -6.46813
lowerneck -16.7871 14.1124 -3.90627
upperneck 47.0479 23.4613 3.225
head 20.4599 8.67462 6.99949
rclavicle -7.40224e-014 2.38542e-014
rhumerus -44.0576 -15.9808 -67.2589
rradius 36.5938
rwrist 2.94543
rhand -16.0558 10.7504
rfingers 7.12502
rthumb 10.1464 -18.9849
lclavicle -7.40224e-014 2.38542e-014
lhumerus -33.3572 9.53885 80.2157
lradius 35.5204
lwrist -6.55888
lhand -20.5394 24.9633
lfingers 7.12502
lthumb 5.81909 54.8634
rfemur -25.829 0.599723 10.6096
rtibia 31.8445
rfoot -8.7648 -5.44807
rtoes 0.44961
lfemur 2.55478 -7.66153 -24.4198
ltibia 13.5854
lfoot -13.4359 -11.9641
ltoes -1.74089
4459
root 4.82283 17.7907 -6.83739 1439.08 -29.3643 -715.508
lowerback 13.5551 6.77624 1.76854
upperback 0.940036 8.98673 -3.75399
thorax -5.64762 4.33088 -6.54188
lowerneck -16.6563 14.1343 -3.82071
upperneck 47.0036 23.5164 3.05775
head 20.4515 8.69117 6.90511
rclavicle -2.01518e-014 1.45113e-014
rhumerus -44.0344 -15.7799 -67.4632
rradius 36.9793
rwrist 2.88382
rhand -16.095 10.5502
rfingers 7.12502
rthumb 10.1085 -19.187
lclavicle -2.01518e-014 1.45113e-014
lhumerus -33.229 9.37749 80.1891
lradius 35.4884
lwrist -6.54205
lhand -20.2467 25.3712
lfingers 7.12502
lthumb 6.10169 55.2634
rfemur -26.0044 0.6758 10.406
rtibia 31.4252
rfoot -9.34249 -5.58763
rtoes 1.10615
lfemur 1.84846 -7.18288 -24.6134
ltibia 13.977
lfoot -13.1639 -12.0734
ltoes -1.03841
4460
root 4.92478 17.8037 -6.9204 1439.15 -29.4821 -715.332
lowerback 13.6446 6.73263 1.66814
upperback 0.88897 8.90834 -3.80995
thorax -5.76651 4.28807 -6.55319
lowerneck -16.5306 14.175 -3.77562
upperneck 47.0972 23.567 3.05115
head 20.4898 8.71005 6.90187
rclavicle -6.73383e-014 2.0276e-014
rhumerus -43.9221 -15.7353 -67.5902
rradius 37.1053
rwrist 2.96835
rhand -16.1038 10.344
rfingers 7.12502
rthumb 10.1 -19.3936
lclavicle -6.73383e-014 2.0276e-014
lhumerus -33.1363 9.06638 80.1866
lradius 35.4329
lwrist -6.13242
lhand -20.3532 25.5933
lfingers 7.12502
lthumb 5.99886 55.4884
rfemur -26.3212 0.541368 10.1823
rtibia 31.1698
rfoot -9.85991 -6.27466
rtoes 0.802028
lfemur 0.93485 -6.99608 -24.8519
ltibia 14.4541
lfoot -12.9303 -12.3044
ltoes -0.777544
4461
root 5.02477 17.8152 -7.01274 1439.24 -29.4583 -715.161
lowerback 13.7501 6.6042 1.54038
upperback 0.907951 8.71339 -3.84922
thorax -5.83947 4.19119 -6.50872
lowerneck -16.6339 14.1817 -3.86622
upperneck 47.1697 23.6456 3.0148
head 20.5599 8.7002 6.93326
rclavicle -5.99833e-014 1.3418e-014
rhumerus -43.5188 -15.6564 -67.8334
rradius 37.139
rwrist 3.08847
rhand -16.1953 10.1403
rfingers 7.12502
rthumb 10.0118 -19.6016
lclavicle -5.99833e-014 1.3418e-014
lhumerus -32.903 8.87007 80.1911
lradius 35.323
lwrist -5.69095
lhand -20.8893 25.2914
lfingers 7.12502
lthumb 5.48122 55.2006
rfemur -26.7132 0.27334 10.0264
rtibia 31.1447
rfoot -10.5245 -7.73803
rtoes 0.747007
lfemur 0.0200219 -6.77427 -25.0031
ltibia 14.8174
lfoot -12.8519 -12.8089
ltoes -1.05899
4462
root 5.11806 17.8288 -7.10349 1439.23 -29.5095 -715.045
lowerback 13.9329 6.52439 1.4785
upperback 0.977976 8.59085 -3.90883
thorax -5.87885 4.13003 -6.53844
lowerneck -16.6985 14.1631 -3.89598
upperneck 47.1218 23.6598 2.91617
head 20.5662 8.68232 6.89856
rclavicle 1.56394e-013 -4.90998e-014
rhumerus -43.1545 -15.6059 -68.1702
rradius 37.182
rwrist 3.14429
rhand -16.2452 10.1505
rfingers 7.12502
rthumb 9.96363 -19.5937
lclavicle 1.56394e-013 -4.90998e-014
lhumerus -32.6653 8.40726 80.1997
lradius 35.2882
lwrist -5.15617
lhand -21.4917 25.0788
lfingers 7.12502
lthumb 4.89959 55.0021
rfemur -26.9877 -0.0112632 10.0089
rtibia 31.3563
rfoot -11.278 -9.44742
rtoes 0.942868
lfemur -0.706084 -6.44753 -25.1073
ltibia 15.1591
lfoot -12.5665 -13.3077
ltoes -0.427739
4463
root 5.20776 17.8424 -7.18865 1439.14 -29.6266 -714.851
lowerback 14.1325 6.49767 1.3943
upperback 1.01798 8.53143 -4.01593
thorax -5.94805 4.09856 -6.6216
lowerneck -16.611 14.1707 -3.81308
upperneck 47.1049 23.6393 2.86994
head 20.5592 8.68398 6.85192
rclavicle 2.60905e-014 -6.55989e-015
rhumerus -42.9299 -15.7064 -68.4378
rradius 37.0943
rwrist 3.3381
rhand -16.2648 10.2471
rfingers 7.12502
rthumb 9.94466 -19.498
lclavicle 2.60905e-014 -6.55989e-015
lhumerus -32.6309 8.30396 80.0163
lradius 35.3806
lwrist -4.93667
lhand -21.6964 25.0769
lfingers 7.12502
lthumb 4.70189 55.0047
rfemur -27.2456 -0.538735 10.0436
rtibia 31.7957
rfoot -11.6247 -10.8866
rtoes -0.859928
lfemur -1.3548 -6.2489 -25.3436
ltibia 15.4972
lfoot -12.2891 -13.5419
ltoes -0.0537593
4464
root 5.29658 17.8602 -7.26933 1439.06 -29.7935 -714.74
lowerback 14.2478 6.47513 1.40208
upperback 1.11751 8.49677 -4.07733
thorax -5.89817 4.08338 -6.69214
lowerneck -16.5732 14.1583 -3.83363
upperneck 47.0589 23.6013 2.86083
head 20.5165 8.67152 6.83079
rclavicle -5.31997e-014 1.11319e-014
rhumerus -42.6652 -15.9068 -68.6543
rradius 37.0179
rwrist 3.58207
rhand -16.3524 10.3977
rfingers 7.12502
rthumb 9.86016 -19.3514
lclavicle -5.31997e-014 1.11319e-014
lhumerus -32.5229 8.62261 79.7702
lradius 35.4107
lwrist -4.88623
lhand -21.7879 25.4646
lfingers 7.12502
lthumb 4.6136 55.3944
rfemur -27.4766 -1.1018 10.215
rtibia 32.483
rfoot -11.8001 -12.1048
rtoes -2.14281
lfemur -1.77517 -6.30486 -25.5251
ltibia 15.7545
lfoot -12.2858 -13.3826
ltoes -0.490186
4465
root 5.38696 17.8783 -7.3458 1439.01 -30.0668 -714.864
lowerback 14.3492 6.47189 1.61216
upperback 1.28973 8.5261 -4.06445
thorax -5.73746 4.10143 -6.79534
lowerneck -16.6135 14.0996 -3.87835
upperneck 46.9806 23.5158 2.81593
head 20.482 8.62944 6.79576
rclavicle 7.16867e-014 -2.8625e-014
rhumerus -42.4167 -15.9493 -68.9532
rradius 37.1903
rwrist 3.61782
rhand -16.3757 10.4954
rfingers 7.12502
rthumb 9.8377 -19.2548
lclavicle 7.16867e-014 -2.8625e-014
lhumerus -32.125 8.74895 79.6284
lradius 35.1544
lwrist -4.75201
lhand -22.0249 25.574
lfingers 7.12502
lthumb 4.3847 55.5087
rfemur -27.6344 -1.60325 10.6325
rtibia 33.4089
rfoot -11.9435 -12.9833
rtoes -1.86458
lfemur -2.04048 -6.55061 -25.5374
ltibia 15.9376
lfoot -12.0776 -12.9209
ltoes -0.635405
4466
root 5.48303 17.8886 -7.4206 1439 -30.3274 -714.871
lowerback 14.3238 6.45588 1.76196
upperback 1.47873 8.52925 -4.06581
thorax -5.49906 4.11213 -6.85657
lowerneck -16.8074 14.0415 -4.01806
upperneck 46.9133 23.4825 2.78116
head 20.4755 8.58375 6.80637
rclavicle 9.41742e-015 -3.53837e-014
rhumerus -42.0989 -15.9145 -69.2537
rradius 37.3882
rwrist 3.61708
rhand -16.233 10.7997
rfingers 7.12502
rthumb 9.97536 -18.944
lclavicle 9.41742e-015 -3.53837e-014
lhumerus -31.6417 8.92377 79.515
lradius 34.8201
lwrist -4.96997
lhand -21.7904 25.9909
lfingers 7.12502
lthumb 4.61112 55.9207
rfemur -27.9289 -2.38723 10.9804
rtibia 34.545
rfoot -12.0031 -13.4398
rtoes -1.2577
lfemur -2.73533 -6.52115 -25.7914
ltibia 16.0963
lfoot -11.8297 -12.4243
ltoes -3.26136
4467
root 5.58345 17.9023 -7.49906 1439.01 -30.6434 -714.748
lowerback 14.3048 6.45842 1.79307
upperback 1.5627 8.53533 -4.09948
thorax -5.38842 4.11994 -6.89919
lowerneck -16.8636 14.0401 -4.05254
upperneck 46.8254 23.5261 2.66454
head 20.4531 8.58125 6.76318
rclavicle -4.6938e-014 5.46658e-015
rhumerus -41.902 -15.8869 -69.5007
rradius 37.5681
rwrist 3.67063
rhand -15.8221 10.914
rfingers 7.12502
rthumb 10.3717 -18.8102
lclavicle -4.6938e-014 5.46658e-015
lhumerus -31.5305 9.18402 79.3066
lradius 34.8035
lwrist -5.20503
lhand -21.5049 26.2187
lfingers 7.12502
lthumb 4.88686 56.1423
rfemur -28.3472 -3.22981 11.248
rtibia 35.8775
rfoot -12.043 -13.6889
rtoes 1.10884
lfemur -3.05074 -7.52563 -26.031
ltibia 16.1902
lfoot -11.0077 -11.4414
ltoes 0.400479
4468
root 5.67892 17.9145 -7.57748 1439.06 -31.0361 -714.927
lowerback 14.4449 6.48819 1.99553
upperback 1.59516 8.61056 -4.02049
thorax -5.40357 4.15284 -6.95486
lowerneck -16.9268 14.0282 -4.02923
upperneck 46.968 23.5516 2.62825
head 20.5873 8.56177 6.77939
rclavicle -8.61235e-014 3.97569e-015
rhumerus -41.8555 -15.6084 -69.7572
rradius 37.8701
rwrist 3.55267
rhand -15.5222 10.5353
rfingers 7.12502
rthumb 10.6611 -19.1743
lclavicle -8.61235e-014 3.97569e-015
lhumerus -31.6118 9.44839 79.0897
lradius 34.8593
lwrist -5.47718
lhand -21.4291 25.6488
lfingers 7.12502
lthumb 4.96005 55.5707
rfemur -28.6182 -3.80083 11.8094
rtibia 37.3847
rfoot -12.0693 -13.7437
rtoes 4.8536
lfemur -3.55004 -7.64379 -26.048
ltibia 16.2482
lfoot -10.1678 -10.865
ltoes 1.9659
4469
root 5.77251 17.9245 -7.65153 1438.94 -31.5407 -715.04
lowerback 14.6643 6.5692 2.17106
upperback 1.69111 8.74772 -3.96073
thorax -5.38678 4.21858 -7.03149
lowerneck -17.5713 13.8979 -4.31435
upperneck 47.5844 23.4558 3.05299
head 21.0553 8.4225 7.15337
rclavicle -3.30604e-014 -2.18663e-015
rhumerus -41.7566 -15.2333 -70.0839
rradius 38.1863
rwrist 3.42546
rhand -15.4736 10.2027
rfingers 7.12502
rthumb 10.708 -19.5044
lclavicle -3.30604e-014 -2.18663e-015
lhumerus -31.5682 9.61775 78.9118
lradius 34.8467
lwrist -5.60547
lhand -21.2927 25.2043
lfingers 7.12502
lthumb 5.09177 55.1232
rfemur -28.7321 -4.4051 12.3308
rtibia 39.0135
rfoot -11.9128 -13.4558
rtoes 6.37173
lfemur -3.90436 -7.40783 -26.1447
ltibia 16.3611
lfoot -9.6482 -10.3616
ltoes 2.55633
4470
root 5.86538 17.9321 -7.725 1438.78 -32.0425 -715.067
lowerback 14.8592 6.64237 2.27942
upperback 1.79007 8.86207 -3.9305
thorax -5.36095 4.2747 -7.09556
lowerneck -17.1274 13.8583 -4.13509
upperneck 47.1114 23.3879 2.56826
head 20.7595 8.4331 6.78573
rclavicle 3.70361e-014 2.78299e-015
rhumerus -41.6029 -14.7648 -70.4871
rradius 38.4643
rwrist 3.2925
rhand -15.6054 10.1839
rfingers 7.12502
rthumb 10.5808 -19.5298
lclavicle 3.70361e-014 2.78299e-015
lhumerus -31.6347 9.58041 78.7834
lradius 35.0278
lwrist -5.21845
lhand -21.1831 25.5649
lfingers 7.12502
lthumb 5.19754 55.4812
rfemur -28.8335 -5.04392 12.7746
rtibia 40.7466
rfoot -11.7132 -13.1546
rtoes 5.83603
lfemur -4.17525 -7.42839 -26.2835
ltibia 16.4997
lfoot -9.49554 -9.73416
ltoes 2.95263
